<?xml version="1.0" encoding="UTF-8" standalone="no"?>
<!-- Created with Inkscape (http://www.inkscape.org/) -->

<svg
   xmlns:dc="http://purl.org/dc/elements/1.1/"
   xmlns:cc="http://creativecommons.org/ns#"
   xmlns:rdf="http://www.w3.org/1999/02/22-rdf-syntax-ns#"
   xmlns:svg="http://www.w3.org/2000/svg"
   xmlns="http://www.w3.org/2000/svg"
   xmlns:sodipodi="http://sodipodi.sourceforge.net/DTD/sodipodi-0.dtd"
   xmlns:inkscape="http://www.inkscape.org/namespaces/inkscape"
   version="1.1"
   id="svg10"
   xml:space="preserve"
   width="589.61066"
   height="589.61066"
   viewBox="0 0 589.61066 589.61066"
   sodipodi:docname="logo-white.svg"
   inkscape:version="0.92.1 r15371"><metadata
     id="metadata16"><rdf:RDF><cc:Work
         rdf:about=""><dc:format>image/svg+xml</dc:format><dc:type
           rdf:resource="http://purl.org/dc/dcmitype/StillImage" /><dc:title></dc:title></cc:Work></rdf:RDF></metadata><defs
     id="defs14"><clipPath
       clipPathUnits="userSpaceOnUse"
       id="clipPath26"><path
         d="M 0,442.208 H 442.208 V 0 H 0 Z"
         id="path24"
         inkscape:connector-curvature="0" /></clipPath></defs><sodipodi:namedview
     pagecolor="#ffffff"
     bordercolor="#666666"
     borderopacity="1"
     objecttolerance="10"
     gridtolerance="10"
     guidetolerance="10"
     inkscape:pageopacity="0"
     inkscape:pageshadow="2"
     inkscape:window-width="1920"
     inkscape:window-height="1017"
     id="namedview12"
     showgrid="false"
     inkscape:zoom="1.4416293"
     inkscape:cx="294.80533"
     inkscape:cy="350.2981"
     inkscape:window-x="-8"
     inkscape:window-y="-8"
     inkscape:window-maximized="1"
     inkscape:current-layer="g20" /><g
     id="g18"
     inkscape:groupmode="layer"
     inkscape:label="Logo_black"
     transform="matrix(1.3333333,0,0,-1.3333333,0,589.61067)"><g
       id="g20"><g
         id="g249"
         transform="matrix(1.3387075,0,0,1.3387075,-6.6291526,-204.66059)"
         style="fill:#ffffff"><g
           transform="translate(-51.504224,94.164292)"
           clip-path="url(#clipPath26)"
           id="g22"
           style="fill:#ffffff"><g
             transform="translate(168.1883,135.7377)"
             id="g28"
             style="fill:#ffffff"><path
               inkscape:connector-curvature="0"
               id="path30"
               style="fill:#ffffff;fill-opacity:1;fill-rule:nonzero;stroke:none"
               d="M 0,0 0.103,-0.104 V -0.206 L 0,-0.31 h -0.207 v 0.104 z m -2.79,-5.91 h 0.103 v 0.434 H -2.79 Z m 20.541,9.898 2.148,-0.103 h 3.429 l 0.765,0.103 0.205,-0.227 h 0.768 l 0.742,0.124 0.228,-0.228 1.075,0.104 c 0,-0.138 0.102,-0.206 0.309,-0.206 l 2.15,-0.208 0.433,0.104 c 0,-0.152 0.111,-0.228 0.33,-0.228 l 0.312,0.124 c 0,-0.193 0.578,-0.338 1.735,-0.433 L 34.425,2.48 34.53,2.584 h 0.102 C 35.21,2.224 36.644,1.797 38.93,1.302 38.943,1.205 39.985,0.847 42.05,0.227 l 0.537,-0.433 0.105,0.102 h 0.122 c 2.315,-0.991 4.354,-2.211 6.117,-3.657 2.012,-1.929 3.016,-4.043 3.016,-6.343 v -0.104 l -0.103,-0.434 0.103,-0.103 v -0.103 c -0.62,-1.888 -1.37,-3.182 -2.253,-3.885 l -2.043,-1.818 c -2.123,-1.364 -4.741,-2.549 -7.854,-3.555 l -3.224,-0.868 -0.33,0.104 c 0,-0.275 -0.683,-0.489 -2.045,-0.641 v 0.104 c -0.453,-0.276 -1.495,-0.524 -3.12,-0.744 l -0.103,0.103 c 0,-0.179 -0.359,-0.282 -1.075,-0.31 l -0.102,0.103 c 0,-0.206 -0.758,-0.385 -2.275,-0.537 l -0.103,0.104 -0.207,-0.208 h -0.225 l -0.54,0.104 c 0,-0.137 -0.606,-0.317 -1.817,-0.537 l -0.105,0.103 h -0.103 l -0.66,-0.206 -0.435,0.103 -0.537,-0.228 -0.413,0.125 -0.867,-0.227 -0.103,0.102 -2.047,-0.31 v 0.104 l -0.102,-0.104 h -1.303 l -0.102,-0.124 h -0.103 l 0.103,-0.102 v -0.208 h -0.33 v -0.102 c 0.218,0 0.33,-0.076 0.33,-0.228 v -0.31 l -0.208,-0.227 h -0.227 c -0.194,0 -0.297,0.179 -0.31,0.537 h -0.125 c 0,-0.674 -0.138,-1.068 -0.413,-1.178 h -0.33 l -0.434,0.641 c -0.219,0 -0.33,0.076 -0.33,0.227 v 0.538 l -0.848,0.102 -0.64,-0.102 -0.123,0.102 h -0.104 l -0.435,-0.102 -0.205,0.64 c -0.359,0 -0.538,0.069 -0.538,0.206 l 0.538,0.537 -0.435,0.434 v 0.435 c 0,0.137 0.29,0.282 0.867,0.434 l 1.282,-0.434 -0.104,-0.435 c 0,-0.316 0.289,-0.529 0.869,-0.64 0,0.496 0.067,0.82 0.206,0.971 l -0.103,0.104 0.205,0.206 -0.205,0.228 0.33,0.31 h -0.125 l 0.228,0.537 -0.103,0.33 0.103,0.331 h -0.228 l 0.332,0.744 -0.104,0.103 0.209,0.227 v 0.538 l -0.105,0.537 c 0.221,0 0.33,0.178 0.33,0.538 h -0.122 l 1.197,4.834 h -0.122 l 0.865,2.79 -0.103,0.124 c 0.179,0.166 0.683,1.632 1.508,4.402 l -0.123,0.33 h 0.123 l 0.105,0.104 -0.105,0.103 v 0.103 l 0.539,1.075 -0.102,0.33 h 0.205 l -0.205,0.207 c 0.08,0.358 0.183,0.538 0.308,0.538 l -0.103,0.124 v 0.102 L 20.974,-0.104 20.869,0 v 0.765 l 0.207,1.384 -0.102,0.124 v 0.103 l 0.33,0.434 h 0.31 c 0.151,0 0.227,-0.111 0.227,-0.33 l 0.415,0.33 h 0.122 L 22.791,2.376 22.688,2.046 22.791,0.971 H 22.688 C 22.329,0.943 22.151,0.765 22.151,0.434 L 22.256,0.331 V 0.227 c -2.357,-7.521 -3.894,-12.867 -4.61,-16.034 l -0.765,-4.402 0.103,-0.124 v -0.103 l -0.205,-0.434 0.102,-0.413 -0.102,-1.199 v -0.206 l 0.102,-0.538 5.063,0.33 0.312,-0.124 0.66,0.228 0.412,-0.104 0.663,0.208 h 0.102 l 0.103,-0.104 0.642,0.206 0.33,-0.102 0.64,0.206 0.105,-0.104 0.123,0.104 h 0.31 l 0.102,-0.104 h 0.125 l 0.31,0.331 h 0.105 l 0.535,-0.103 c 0,0.193 0.683,0.331 2.047,0.413 l 0.123,-0.103 h 0.105 c 0,0.207 0.321,0.351 0.97,0.433 l 0.31,-0.102 c 0,0.124 0.792,0.338 2.377,0.64 l 0.64,-0.103 c 0,0.261 0.785,0.475 2.355,0.64 0.056,0.124 1.708,0.661 4.96,1.613 3.416,1.377 5.956,2.885 7.624,4.524 0.676,0.924 1.111,1.385 1.302,1.385 l -0.102,0.124 v 0.104 c 0.232,0.343 0.481,1.095 0.743,2.252 l 0.104,0.103 h 0.123 l -0.123,0.125 0.123,0.536 c 0,1.378 -0.613,2.844 -1.84,4.402 -0.468,0.33 -0.758,0.688 -0.867,1.074 -2.025,1.639 -4.03,2.858 -6.013,3.658 0,0.192 -0.504,0.371 -1.509,0.536 L 39.157,0.868 39.035,0.765 H 38.93 C 37.193,1.329 35.471,1.791 33.763,2.149 L 33.558,2.376 33.455,2.273 h -0.227 c -0.33,0 -0.58,0.103 -0.745,0.311 L 32.38,2.48 h -0.125 c -0.37,0 -0.689,0.11 -0.95,0.33 L 30.975,2.686 30.873,2.81 H 30.768 L 30.333,2.686 30.23,2.81 V 2.914 L 29.693,2.81 29.258,3.017 28.928,2.914 28.393,3.12 28.061,3.017 27.318,3.223 26.778,3.12 26.243,3.347 25.601,3.223 24.423,3.451 23.866,3.347 22.916,3.555 22.791,3.451 22.046,3.555 h -0.33 L 21.076,3.451 20.641,3.555 20.106,3.451 V 3.555 L 20.003,3.451 H 19.899 L 19.794,3.555 17.751,3.347 17.646,3.451 H 17.524 L 17.419,3.347 h -0.103 l -0.332,0.104 c 0,-0.152 -0.317,-0.262 -0.95,-0.331 l -0.125,0.103 v 0.124 l -1.92,-0.33 -0.332,0.103 c 0,-0.206 -0.502,-0.31 -1.508,-0.31 l -0.102,0.104 -0.33,-0.33 -0.103,0.102 C 8.017,1.901 5.477,1.219 3.987,0.641 V 0.434 L 3.862,0.538 H 3.76 L 3.015,0.331 V 0.227 H 3.12 L 3.45,0.331 V 0.104 L 2.48,-0.206 2.355,-0.104 V 0 L 1.817,-0.537 c -2.354,-1.364 -3.534,-2.762 -3.534,-4.195 l 1.614,-3.12 C 0.036,-7.88 0.178,-8.058 0.33,-8.389 l 0.847,0.227 c 1.517,0 2.273,-0.434 2.273,-1.302 L 3.555,-10.745 3.45,-10.848 H 3.12 l -0.228,0.206 v 0.104 l 0.123,0.103 v 0.125 l -0.123,0.102 H 2.788 C 2.609,-11.075 2.431,-11.509 2.252,-11.509 H 2.045 l -0.228,0.226 v 0.538 H 1.715 L 1.61,-10.848 1.28,-10.745 0,-10.848 c -0.495,0 -1.144,0.75 -1.942,2.252 -0.788,1.666 -1.18,2.955 -1.18,3.864 0.484,1.984 1.276,3.382 2.377,4.195 l 0.103,0.103 0.207,-0.206 C -0.752,-0.765 -0.999,-0.978 -1.177,-1.281 V -1.385 C 0.64,0.338 3.684,1.626 7.955,2.48 8.34,2.673 9.594,2.962 11.717,3.347 l 0.432,-0.124 c 0,0.166 0.435,0.276 1.303,0.332 l 0.414,-0.104 0.228,0.206 0.432,-0.102 0.413,0.206 0.868,-0.104 0.539,0.228 1.073,-0.124 z" /></g><g
             transform="translate(228.7517,116.459)"
             id="g32"
             style="fill:#ffffff"><path
               inkscape:connector-curvature="0"
               id="path34"
               style="fill:#ffffff;fill-opacity:1;fill-rule:nonzero;stroke:none"
               d="M 0,0 V -0.084 H 0.085 L 0.33,0 V 0.083 H 0.25 Z M -4.175,7.418 V 7.335 h 0.085 l 0.91,0.248 V 7.666 H -3.265 Z M -4.835,7.005 H -4.75 L -4.255,7.17 V 7.335 C -4.643,7.267 -4.835,7.156 -4.835,7.005 M -6.157,6.591 V 6.508 L -6.57,6.178 h -0.082 v 0.165 c 0.055,0.165 0.221,0.248 0.495,0.248 M -6.9,6.178 -6.819,6.096 V 5.93 H -6.9 l -0.165,0.166 0.081,0.082 z M -7.397,-1.591 H -6.9 v 0.082 H -7.397 Z M -7.81,-1.675 h 0.248 v 0.166 H -7.645 Z M -7.975,5.517 -7.81,5.351 V 5.269 L -8.14,5.186 v 0.165 z m -0.33,-7.108 h 0.33 v 0.082 h -0.33 z m 0,6.777 h 0.081 V 4.938 H -8.47 V 5.021 Z M -8.802,3.12 H -8.72 V 2.955 h -0.247 z m 0,1.736 h 0.167 V 4.772 L -9.379,4.111 -9.464,4.195 v 0.082 c 0.111,0 0.332,0.193 0.662,0.579 M -9.545,2.541 V 2.459 c 4.325,1.942 6.804,3.347 7.44,4.214 H -2.19 C -2.574,6.412 -2.767,6.22 -2.767,6.096 h -0.248 v 0.082 l 0.578,0.579 C -5.316,6.012 -7.685,4.607 -9.545,2.541 m 8.017,6.034 0.248,-0.165 0.083,0.082 h 0.082 c 0.606,0 0.91,-0.221 0.91,-0.661 l -0.25,-0.33 0.25,-0.249 V 7.17 l -0.25,-0.248 c 0,0.22 -0.054,0.33 -0.165,0.33 H -0.7 L -0.865,6.508 C -2.078,5.173 -5.276,3.381 -10.454,1.136 l 0.082,-0.082 -0.082,-0.414 0.165,-0.496 c 0.165,0 0.33,-0.11 0.495,-0.33 0.415,-0.069 0.633,-0.18 0.662,-0.331 l 0.082,0.082 h 0.083 L -8.72,-0.682 -8.802,-0.765 V -0.847 H -8.47 V -0.6 h 0.165 V -0.765 L -8.389,-0.847 V -0.93 h 0.165 c 2.163,0 5.18,0.558 9.051,1.674 L 1.075,0.495 C 0.91,0.22 0.691,0.083 0.415,0.083 0.415,-0.138 0.25,-0.249 -0.08,-0.249 l -0.085,0.083 v 0.082 L -0.08,0 H -0.165 C -0.274,0 -0.33,-0.11 -0.33,-0.331 h -0.083 l -0.165,0.165 0.083,0.082 -0.745,-0.165 0.085,-0.082 V -0.414 L -1.24,-0.496 h -0.08 l -0.085,0.082 v 0.083 l 0.085,0.082 c -0.801,-0.399 -1.2,-0.654 -1.2,-0.764 l 0.083,-0.083 -0.083,-0.083 h -0.083 l -0.082,0.083 v 0.083 l 0.082,0.083 h -0.082 c -0.827,-0.097 -1.24,-0.235 -1.24,-0.413 v -0.083 h -0.33 v 0.165 h 0.165 v 0.082 h -0.33 c -0.111,0 -0.165,-0.11 -0.165,-0.33 H -4.75 v 0.083 l 0.08,0.083 v 0.082 H -5 l -0.165,-0.165 0.083,-0.083 -0.083,-0.082 h -0.33 v 0.082 l 0.083,0.083 v 0.083 l -0.083,0.082 c -0.221,-0.082 -0.33,-0.165 -0.33,-0.248 l 0.08,-0.082 -0.08,-0.084 H -6.24 v 0.166 h 0.165 v 0.083 H -6.322 L -6.57,-1.509 -6.487,-1.591 V -1.675 L -6.652,-1.84 -7.15,-1.757 -7.23,-1.84 h -0.084 l -0.248,0.083 -1.24,-0.165 -0.165,0.165 -0.332,-0.083 c -1.541,0.427 -2.266,0.93 -2.168,1.509 v 0.414 c -0.869,-0.579 -1.267,-0.242 -1.2,1.012 l 0.353,0.413 0.352,-0.186 0.08,-0.083 V 1.156 L -12.127,1.074 V 0.909 l 0.928,0.888 V 1.88 h -0.165 v 0.248 c 0.207,0 0.566,0.413 1.075,1.239 l 0.66,0.579 V 3.699 c -0.138,0 -0.384,-0.276 -0.743,-0.827 h 0.083 c 1.654,1.874 3.443,3.224 5.372,4.05 V 7.005 H -5 c -0.205,0 -0.481,-0.139 -0.825,-0.414 H -5.99 v 0.082 c 0.549,0.414 1.432,0.855 2.645,1.323 z" /></g><g
             transform="translate(241.0482,117.1404)"
             id="g36"
             style="fill:#ffffff"><path
               inkscape:connector-curvature="0"
               id="path38"
               style="fill:#ffffff;fill-opacity:1;fill-rule:nonzero;stroke:none"
               d="m 0,0 h 0.082 v -0.248 h -0.247 v 0.083 z M -0.58,-0.083 V -0.33 h -0.08 l -0.167,0.165 0.082,0.082 z m -0.91,-0.082 v -0.249 h -0.08 l -0.165,0.166 0.08,0.083 z m -1.072,-0.083 0.165,-0.166 v -0.082 h -0.165 l -0.168,0.166 0.085,0.082 z m -2.893,-1.818 v -0.083 h 0.08 c 0.237,0.083 0.402,0.22 0.498,0.413 z m -0.992,0 h 0.165 l 1.073,0.33 v 0.083 H -5.29 C -6.061,-1.791 -6.447,-1.929 -6.447,-2.066 M -7.77,-2.397 V -2.81 l 0.166,0.165 -0.083,0.248 z m -2.397,4.009 h 0.33 l -0.165,-0.166 h -0.165 z M 2.872,13.638 h 0.33 l 0.33,-0.248 0.165,0.165 h 0.25 l 0.33,-0.33 c 0,-0.331 -0.111,-0.496 -0.33,-0.496 V 12.647 C 4.221,12.632 4.36,12.55 4.36,12.398 L 4.112,12.15 H 4.027 l -0.08,0.083 H 3.862 L 3.037,11.075 C 2.885,10.759 2.417,10.236 1.632,9.506 0.723,8.238 -0.237,6.061 -1.24,2.976 -1.735,1.749 -2.315,0.565 -2.975,-0.579 h 0.743 l 0.082,0.083 h 0.083 v -0.083 l 0.247,0.083 c 1.048,0 2.012,0.11 2.895,0.331 V 0.082 H 1.24 V 0 L 1.155,-0.083 V -0.165 H 1.24 c 0.412,0 1.543,0.247 3.389,0.744 L 4.875,0.331 V 0.165 C 4.875,0 4.766,-0.083 4.545,-0.083 L 4.629,-0.165 V -0.248 C 4.228,-0.51 3.483,-0.73 2.395,-0.909 L 1.985,-0.991 1.9,-0.909 1.735,-1.075 H 1.57 L 1.405,-0.909 1.57,-0.744 H 1.487 L 1.24,-0.826 1.322,-0.909 v -0.082 c 0,-0.153 -0.827,-0.29 -2.48,-0.414 L -1.24,-1.158 H -1.49 L -1.405,-1.24 V -1.322 L -1.57,-1.488 h -0.662 l -0.083,0.083 H -2.397 L -2.562,-1.653 -3.14,-1.57 c -0.428,0 -0.843,-0.331 -1.24,-0.992 -0.8,-0.772 -1.708,-1.158 -2.729,-1.158 -0.607,0.401 -0.91,0.758 -0.91,1.075 l 0.085,0.661 -0.085,0.083 v 0.082 c 0.165,0.744 0.524,1.268 1.074,1.571 h 0.25 l 0.081,-0.082 0.084,0.082 h 0.413 l 0.082,-0.082 h 0.083 l 0.167,0.165 c 1.102,-0.083 1.65,-0.165 1.65,-0.249 l 0.415,0.166 0.083,-0.082 0.497,0.909 -0.085,0.082 v 0.083 c 0.33,0.537 0.495,0.923 0.495,1.157 0.125,0 0.346,0.414 0.663,1.24 0.412,0.882 0.682,1.377 0.805,1.487 l -0.08,0.083 v 0.084 c 0.396,1.266 0.7,1.901 0.907,1.901 L -0.6,6.861 -0.187,7.769 -2.17,6.199 c 0,-0.123 -0.497,-0.565 -1.487,-1.322 l -0.085,0.082 h -0.08 L -6.2,3.017 V 2.852 C -6.543,2.727 -7.04,2.397 -7.687,1.86 -9.754,0.303 -11.351,-0.689 -12.482,-1.116 h -0.247 c -0.112,0 -0.165,0.138 -0.165,0.414 -0.221,0 -0.33,0.054 -0.33,0.164 v 0.083 c 0.109,0.221 0.274,0.331 0.495,0.331 v 0.083 c -0.165,0 -0.25,0.054 -0.25,0.165 v 0.248 c 0,0.096 0.471,0.261 1.407,0.496 0,0.166 0.275,0.275 0.828,0.331 0,0.165 0.053,0.247 0.165,0.247 h 0.33 V 1.364 l -0.745,-0.579 h 0.085 c 2.533,1.378 4.564,2.742 6.094,4.092 1.474,1.06 3.321,2.63 5.538,4.711 l 0.164,0.165 -0.082,0.331 c 0.082,0 0.221,0.248 0.413,0.744 0.138,0 0.414,0.551 0.827,1.653 0.194,0 0.303,0.192 0.332,0.578 z" /></g><g
             transform="translate(255.1596,126.7083)"
             id="g40"
             style="fill:#ffffff"><path
               inkscape:connector-curvature="0"
               id="path42"
               style="fill:#ffffff;fill-opacity:1;fill-rule:nonzero;stroke:none"
               d="M 0,0 0.167,-0.166 V 0.165 Z M 1.985,3.471 H 2.15 C 2.426,3.457 2.565,3.402 2.565,3.306 L 2.977,3.389 H 3.142 L 3.474,3.057 V 2.561 L 3.39,2.479 V 2.396 L 3.555,2.231 V 1.817 L 3.225,1.488 2.895,1.57 c 0,-0.633 -0.66,-1.433 -1.985,-2.397 l -0.495,-0.165 -0.66,0.908 c 0.067,1.213 0.232,1.819 0.495,1.819 h 0.082 c 0.165,0 0.248,-0.11 0.248,-0.33 L 0.83,1.57 1.655,2.314 1.49,2.561 v 0.414 z m -3.512,-12.77 0.082,-0.083 V -9.464 L -1.527,-9.547 H -1.61 l -0.083,0.083 v 0.082 l 0.083,0.083 z M -3.18,-9.464 h 0.412 V -9.713 H -3.18 Z m -0.207,5.144 v -0.082 l 0.577,0.579 C -3.055,-3.92 -3.251,-4.085 -3.387,-4.32 m -1.385,-1.797 0.085,-0.082 v -0.083 l -0.085,-0.082 h -0.083 l -0.082,0.082 v 0.083 l 0.082,0.082 z m -0.495,-2.315 -0.478,-1.197 h 0.085 v 0.743 l -0.085,-0.082 z m -0.33,1.736 h 0.165 l -0.085,-0.247 h -0.245 v 0.082 z m -0.498,-0.33 h 0.083 V -7.274 H -6.26 v 0.082 z m -0.412,-0.248 h 0.082 v -0.165 l -0.412,-0.248 h -0.165 v 0.083 z m 4.442,4.773 h 0.083 c 0.274,-0.013 0.412,-0.069 0.412,-0.165 l 0.415,0.083 h 0.165 c 0.112,-0.028 0.219,-0.165 0.33,-0.414 L -0.907,-3.41 v -0.082 c 0.165,0 0.247,-0.056 0.247,-0.166 v -0.165 l -0.413,-0.414 h -0.082 v 0.249 h -0.25 c 0,-0.427 -0.468,-1.062 -1.405,-1.902 l -1.382,-1.219 -0.723,-1.198 c 0.152,-0.717 0.482,-1.075 0.99,-1.075 0.277,-0.069 0.415,-0.151 0.415,-0.247 l -0.165,-0.249 0.41,0.083 h 0.663 l 0.167,0.166 0.41,-0.084 2.15,0.414 v 0.165 l -0.99,-0.248 -0.085,0.083 v 0.082 l 0.497,0.249 0.083,-0.084 0.495,0.249 H 0.21 L 0.375,-8.968 0.29,-9.052 v -0.082 c 0.33,0 0.497,-0.083 0.497,-0.248 V -9.629 L 0.62,-9.795 0.705,-9.878 v -0.165 c 0,-0.221 -1.158,-0.441 -3.472,-0.661 l -0.248,-0.165 H -3.51 c -1.253,0 -1.869,0.62 -1.84,1.859 l -0.082,0.248 0.165,0.909 c -2.866,-1.984 -4.848,-2.975 -5.952,-2.975 l -0.495,0.661 v 0.083 l 0.247,0.33 -0.165,0.496 0.248,0.248 h 0.082 l 0.745,-0.083 c 1.336,0.331 2.438,0.8 3.305,1.406 h 0.085 v -0.166 c -0.085,-0.152 -0.527,-0.399 -1.325,-0.744 v -0.082 h 0.25 c 1.527,0.867 2.796,1.695 3.8,2.48 l -0.08,0.082 v 0.165 l 0.557,0.889 c 0.91,1.53 1.543,2.383 1.9,2.562" /></g><g
             transform="translate(257.2694,115.6116)"
             id="g44"
             style="fill:#ffffff"><path
               inkscape:connector-curvature="0"
               id="path46"
               style="fill:#ffffff;fill-opacity:1;fill-rule:nonzero;stroke:none"
               d="m 0,0 0.165,-0.166 0.083,0.084 V 0 Z M 4.05,4.794 V 4.876 L 1.652,3.471 C 0.548,2.493 -0.303,1.557 -0.91,0.661 l 0.33,-0.578 0.083,0.082 h 0.082 L -0.33,0.083 h 0.08 l 0.993,0.33 H 0.825 C 0.825,0.302 0.66,0.193 0.33,0.083 V 0 C 1.748,0.343 3.787,1.75 6.445,4.215 6.819,4.711 7.065,4.959 7.19,4.959 V 5.042 L 7.107,5.125 v 0.082 c 0.165,0 0.248,0.165 0.248,0.496 C 6.335,5.703 5.234,5.4 4.05,4.794 m -5.87,-5.373 h 0.082 V 0 H -1.82 Z m -0.495,2.48 -0.25,-0.331 h 0.085 c 0,0.138 0.109,0.221 0.33,0.249 v 0.082 z m -4.134,-13.142 0.084,-0.33 -0.084,-0.332 V -12.15 H -6.53 l -0.084,0.082 h -0.081 v -0.082 l 0.33,-0.91 h 0.081 v 0.166 l -0.165,0.495 0.497,-0.578 v -0.083 c 0,-0.109 -0.083,-0.165 -0.248,-0.165 v -0.083 c 0.248,-0.496 0.607,-0.88 1.075,-1.157 l 0.33,0.082 c 0.234,-0.275 0.509,-0.412 0.825,-0.412 0.455,0 0.814,0.193 1.075,0.579 h 0.165 v -0.167 l 0.085,0.084 h 0.08 l -0.08,0.083 v 0.247 h 0.08 l 0.085,-0.082 h 0.08 l 0.168,0.247 v 0.083 H -2.4 l 0.168,0.166 0.082,-0.083 0.165,0.248 -0.082,0.082 v 0.165 l 0.082,-0.082 h 0.083 c 0.497,0.882 1.982,4.244 4.462,10.084 H 2.395 C 2.203,-3.375 1.788,-3.65 1.155,-3.967 L -2.4,-6.613 c -2.698,-2.259 -4.049,-3.801 -4.049,-4.628 m -0.99,-0.744 v -0.33 l 0.082,0.082 h 0.082 l -0.082,0.248 z M 9.999,9.174 h 0.25 l 0.248,-0.164 0.412,0.164 c 0.277,-0.11 0.415,-0.275 0.415,-0.496 L 11.074,8.266 C 11.351,8.251 11.489,8.169 11.489,8.017 V 7.934 L 10.414,7.026 V 6.943 h 0.083 c 0,0.165 0.056,0.248 0.165,0.248 h 0.247 L 11.074,7.026 V 6.943 L 10.827,6.695 H 10.329 C 10.329,6.391 9.89,6.116 9.009,5.869 7.506,4.202 6.293,2.521 5.372,0.826 L 4.05,-1.488 v -0.166 h 0.247 c 0,0.18 0.908,0.786 2.727,1.819 L 9.464,1.694 9.709,1.446 C 9.6,1.184 8.706,0.62 7.024,-0.248 4.779,-1.612 3.595,-2.384 3.47,-2.562 2.589,-4.422 1.075,-7.921 -1.075,-13.06 -2.19,-15.263 -3.1,-16.366 -3.804,-16.366 l -0.081,-0.083 H -3.97 c -0.865,0 -1.995,1.047 -3.387,3.141 l -0.332,1.158 c 0.332,1.487 0.635,2.231 0.91,2.231 l 0.084,-0.083 0.165,0.249 -0.165,0.247 0.081,0.083 h 0.165 v -0.165 c 1.918,1.997 4.121,3.816 6.614,5.455 l 2.892,1.901 c 0.828,1.653 1.764,3.306 2.81,4.959 H 5.702 C 5.521,2.3 4.944,1.804 3.965,1.24 2.105,-0.331 0.508,-1.212 -0.827,-1.405 v 0.083 L -0.91,-1.405 h -0.082 c -0.304,0 -0.663,0.302 -1.075,0.909 v 0.33 l 0.165,0.662 v 0.33 L -2.645,0.248 H -3.06 v 0.165 l 0.085,0.083 v 0.083 l -0.25,0.082 -0.082,-0.082 -0.083,0.082 0.415,0.579 -0.25,0.248 v 0.165 l 1.405,0.909 0.58,0.413 h 0.165 V 2.892 c 0,-0.165 -0.112,-0.247 -0.33,-0.247 L -1.49,2.562 V 2.396 C 2.589,5.097 4.902,6.447 5.455,6.447 V 6.53 H 5.372 L 4.05,6.116 v 0.082 c 0.053,0.111 1.019,0.525 2.892,1.24 L 8.1,7.521 8.182,7.438 8.679,7.77 8.759,7.687 h 0.085 z" /></g><g
             transform="translate(280.8875,117.6565)"
             id="g48"
             style="fill:#ffffff"><path
               inkscape:connector-curvature="0"
               id="path50"
               style="fill:#ffffff;fill-opacity:1;fill-rule:nonzero;stroke:none"
               d="M 0,0 0.083,-0.082 V -0.165 L 0,-0.248 h -0.082 l -0.083,0.083 v 0.083 L -0.082,0 Z m -1.425,-0.991 h 0.08 V -1.074 L -1.51,-1.239 h -0.08 v 0.083 z m -3.72,5.951 0.413,0.165 V 5.208 H -4.814 C -5.035,5.125 -5.145,5.042 -5.145,4.96 M -5.724,4.63 -5.807,4.546 V 4.463 l 0.248,0.083 V 4.63 Z M -6.302,4.216 V 4.051 l 0.33,0.165 V 4.299 H -6.054 Z M -7.294,3.637 h 0.165 V 3.555 L -7.294,3.39 h -0.165 v 0.082 z m -1.82,0.993 h 0.085 V 4.546 c 0,-0.083 -0.112,-0.165 -0.33,-0.247 v 0.082 z m -2.81,-2.398 h 0.085 V 2.067 h -0.25 z m -0.33,-0.247 h 0.083 V 1.901 l -0.248,-0.247 h -0.083 v 0.082 z m -1.57,-1.654 c 0.37,0.193 0.647,0.414 0.825,0.661 v 0.083 c -0.274,-0.124 -0.548,-0.371 -0.825,-0.744 m -0.58,-0.413 h 0.085 l 0.245,0.248 z m 7.11,6.695 0.247,-0.248 0.248,0.166 h 0.165 L -6.302,6.2 V 5.87 L -6.469,5.621 V 5.538 c 0.167,0 0.249,-0.054 0.249,-0.165 V 5.291 L -6.715,4.795 -6.799,4.877 V 4.96 h 0.084 l -0.084,0.331 h -0.08 c 0,-0.359 -0.415,-1.103 -1.24,-2.232 V 2.976 h 0.08 l 0.25,0.331 0.08,0.083 h 0.25 V 3.307 L -8.204,2.646 -8.287,2.729 h -0.082 l -0.66,-1.075 2.56,2.314 h -0.08 C -6.744,3.748 -6.937,3.637 -7.129,3.637 V 3.72 c 1.516,1.515 2.671,2.287 3.472,2.315 1.046,-0.098 1.57,-0.318 1.57,-0.662 L -2.17,5.042 -2.087,4.216 -2.17,4.133 h -0.082 l -0.083,0.33 C -2.446,4.463 -2.5,4.326 -2.5,4.051 -3.989,1.227 -4.732,-0.371 -4.732,-0.744 l 0.082,-0.247 -0.164,-0.165 c 0.164,0 0.247,-0.083 0.247,-0.249 l 0.497,-0.496 h 0.578 c 0.178,0 0.372,0.084 0.577,0.249 h 0.498 c -0.11,-0.221 -0.277,-0.331 -0.498,-0.331 v -0.083 h 0.085 c 0.578,0 1.521,0.551 2.83,1.654 L 0.33,-0.33 0.497,-0.495 V -0.744 C 0.083,-1.35 -0.778,-2.038 -2.087,-2.81 L -3.08,-3.223 -3.162,-3.14 c 0,-0.125 -0.301,-0.207 -0.908,-0.248 -1.104,0.248 -1.654,0.799 -1.654,1.653 l -0.083,0.496 c 0.096,0 0.181,0.192 0.248,0.578 l -0.081,0.249 1.32,2.974 c 0.07,0 0.152,0.193 0.25,0.579 0.136,0 0.246,0.275 0.33,0.827 0.096,0 0.179,0.138 0.248,0.413 h -0.083 c -0.84,0 -2.439,-1.047 -4.794,-3.141 -1.459,-1.515 -2.315,-2.59 -2.563,-3.223 l 0.083,-0.248 h -0.083 l 0.083,-0.082 v -0.083 c 0,-0.166 -0.112,-0.249 -0.33,-0.249 l -0.248,0.083 c -0.138,-0.358 -0.276,-0.551 -0.412,-0.578 h -0.165 l -0.25,0.248 0.165,0.33 -0.082,0.083 h -0.083 l -0.165,-0.166 -0.165,0.166 0.33,0.496 c -0.219,0 -0.33,0.082 -0.33,0.248 v 0.165 c 0.702,0.648 1.226,1.281 1.57,1.901 h 0.082 l 0.083,-0.082 h 0.085 v 0.165 h 0.08 l -0.08,0.082 v 0.083 l 0.165,0.166 0.08,-0.084 0.085,0.249 -0.085,0.082 v 0.083 l 0.187,0.124 -0.082,0.082 0.845,1.199 0.063,0.269 -0.971,-1.158 -3.739,-2.665 c -0.95,-0.276 -1.428,-0.359 -1.428,-0.248 0.125,0.331 0.317,0.496 0.58,0.496 v 0.082 c -0.276,0 -0.415,0.056 -0.415,0.167 v 0.165 c 0.043,0.123 0.732,0.564 2.07,1.322 0,0.165 0.107,0.302 0.33,0.412 0.109,0 0.165,-0.082 0.165,-0.247 1.998,1.612 3.483,2.879 4.462,3.802 V 4.96 H -8.534 L -8.782,4.795 h -0.082 v 0.082 c 0.825,1.158 1.293,1.736 1.405,1.736 z" /></g><g
             transform="translate(76.5384,149.9586)"
             id="g52"
             style="fill:#ffffff"><path
               inkscape:connector-curvature="0"
               id="path54"
               style="fill:#ffffff;fill-opacity:1;fill-rule:nonzero;stroke:none"
               d="m 0,0 c -4.123,0 -8.016,1.648 -10.962,4.643 -2.939,2.986 -4.558,6.902 -4.558,11.025 0,4.119 1.619,8.035 4.557,11.026 2.949,2.992 6.842,4.64 10.963,4.64 4.151,0 8.06,-1.648 11.006,-4.64 2.909,-2.958 4.512,-6.873 4.512,-11.026 0,-4.157 -1.603,-8.072 -4.512,-11.025 C 8.063,1.648 4.155,0 0,0 m 0,35.101 c -5.128,0 -10.095,-2.09 -13.628,-5.731 -3.649,-3.709 -5.658,-8.575 -5.658,-13.702 0,-5.131 2.01,-9.999 5.655,-13.699 3.536,-3.646 8.504,-5.738 13.631,-5.738 5.177,0 10.032,2.036 13.67,5.729 3.652,3.704 5.663,8.575 5.663,13.708 0,5.132 -2.01,9.997 -5.662,13.706 C 10.036,33.067 5.18,35.101 0,35.101" /></g><g
             transform="translate(103.6099,184.513)"
             id="g56"
             style="fill:#ffffff"><path
               inkscape:connector-curvature="0"
               id="path58"
               style="fill:#ffffff;fill-opacity:1;fill-rule:nonzero;stroke:none"
               d="M 0,0 H -3.764 V -37.824 H 18.75 v 3.769 H 0 Z" /></g><g
             transform="translate(158.2926,163.7692)"
             id="g60"
             style="fill:#ffffff"><path
               inkscape:connector-curvature="0"
               id="path62"
               style="fill:#ffffff;fill-opacity:1;fill-rule:nonzero;stroke:none"
               d="m 0,0 h -19.499 v -3.767 h 14.982 c -1.881,-5.543 -7.804,-9.943 -13.797,-9.943 -3.957,0 -7.685,1.623 -10.494,4.574 -2.79,2.934 -4.328,6.821 -4.328,10.942 0,4.072 1.54,7.962 4.319,10.934 2.862,2.957 6.591,4.585 10.503,4.585 6.052,0 11.319,-3.541 13.421,-9.02 L -4.527,7.35 h 3.954 l -0.681,1.972 c -2.437,7.04 -9.292,11.77 -17.06,11.77 -5.002,0 -9.687,-2.023 -13.201,-5.705 -3.474,-3.704 -5.388,-8.525 -5.388,-13.581 0,-5.113 1.917,-9.939 5.397,-13.587 3.534,-3.707 8.219,-5.747 13.192,-5.747 7.126,0 14.865,5.406 17.237,12.011 0.531,1.349 0.839,2.629 0.945,3.911 z" /></g><g
             transform="translate(168.4326,162.1257)"
             id="g64"
             style="fill:#ffffff"><path
               inkscape:connector-curvature="0"
               id="path66"
               style="fill:#ffffff;fill-opacity:1;fill-rule:nonzero;stroke:none"
               d="M 0,0 6.314,16.304 12.664,0 Z M 6.918,22.934 H 5.698 4.902 l -15.187,-38.37 h 4.033 l 4.737,11.716 h 15.652 l 4.788,-11.716 h 4.029 L 7.767,22.934 Z" /></g><g
             transform="translate(228.4082,163.6711)"
             id="g68"
             style="fill:#ffffff"><path
               inkscape:connector-curvature="0"
               id="path70"
               style="fill:#ffffff;fill-opacity:1;fill-rule:nonzero;stroke:none"
               d="M 0,0 H -9.787 V 17.124 H 0 c 5.661,0 8.24,-4.437 8.24,-8.561 C 8.24,6.284 7.504,4.175 6.168,2.623 4.691,0.905 2.559,0 0,0 M 11.954,8.586 C 11.954,14.7 7.849,20.891 0,20.891 h -13.551 v -37.873 h 3.764 V -3.72 H 0 c 3.68,0 6.785,1.349 8.978,3.898 1.919,2.233 2.976,5.219 2.976,8.408" /></g><g
             transform="translate(247.5832,162.1257)"
             id="g72"
             style="fill:#ffffff"><path
               inkscape:connector-curvature="0"
               id="path74"
               style="fill:#ffffff;fill-opacity:1;fill-rule:nonzero;stroke:none"
               d="M 0,0 6.314,16.304 12.667,0 Z M 6.918,22.934 H 5.698 4.904 l -15.189,-38.37 h 4.033 L -1.515,-3.72 H 14.14 l 4.785,-11.716 h 4.028 L 7.769,22.934 Z" /></g><g
             transform="translate(285.8874,167.5424)"
             id="g76"
             style="fill:#ffffff"><path
               inkscape:connector-curvature="0"
               id="path78"
               style="fill:#ffffff;fill-opacity:1;fill-rule:nonzero;stroke:none"
               d="m 0,0 c -5.948,0.589 -9.61,1.191 -9.963,5.972 -0.127,1.686 0.285,3.131 1.249,4.324 1.867,2.449 5.34,3.365 7.968,3.405 3.207,0.101 5.979,-0.967 7.603,-2.705 C 7.64,10.136 8.126,9.17 8.385,7.961 L 8.621,6.043 12.29,6.764 12.058,8.628 c -0.785,4.175 -3.955,7.225 -8.698,8.365 -5.783,1.391 -11.985,-0.433 -15.083,-4.447 -1.511,-1.976 -2.183,-4.353 -1.947,-6.837 0.563,-8.149 7.576,-8.853 13.212,-9.42 5.493,-0.551 8.885,-1.142 9.654,-4.692 0.441,-2.121 0.025,-3.985 -1.238,-5.537 -1.751,-2.154 -5.098,-3.543 -8.529,-3.543 -3.72,0 -9.172,2.029 -9.651,6.596 l -0.252,1.8 -3.755,-0.471 0.265,-1.788 c 0.679,-6.403 7.381,-9.857 13.342,-9.857 4.655,0 9.096,1.92 11.588,5.006 1.951,2.42 2.619,5.379 1.933,8.559 C 11.505,-1.14 5.392,-0.535 0,0" /></g><g
             transform="translate(338.058,162.1257)"
             id="g80"
             style="fill:#ffffff"><path
               inkscape:connector-curvature="0"
               id="path82"
               style="fill:#ffffff;fill-opacity:1;fill-rule:nonzero;stroke:none"
               d="M 0,0 6.314,16.304 12.664,0 Z M 6.918,22.934 H 5.698 4.902 L -9.415,-13.239 -28.469,3.608 -9.366,22.387 h -5.23 l -16.41,-16.08 v 16.08 h -3.716 v -37.823 h 3.716 V 0.825 l 18.449,-16.261 h 2.272 3.354 0.679 l 4.737,11.716 h 15.652 l 4.788,-11.716 h 4.029 L 7.767,22.934 Z" /></g><g
             transform="translate(367.2001,150.4581)"
             id="g84"
             style="fill:#ffffff"><path
               inkscape:connector-curvature="0"
               id="path86"
               style="fill:#ffffff;fill-opacity:1;fill-rule:nonzero;stroke:none"
               d="M 0,0 V 34.055 H -3.764 V -3.769 H 18.75 V 0 Z" /></g><g
             transform="translate(278.1491,257.8979)"
             id="g88"
             style="fill:#ffffff"><path
               inkscape:connector-curvature="0"
               id="path90"
               style="fill:#ffffff;fill-opacity:1;fill-rule:nonzero;stroke:none"
               d="m 0,0 c -1.871,-15.367 -7.167,-21.293 -9.23,-24.646 -2.061,-3.351 -4.407,-6.325 -7.036,-8.922 -5.256,-5.193 -11.005,-9.055 -17.372,-11.23 -17.278,-5.906 -29.889,-4.68 -42.573,0 -6.311,2.329 -12.114,6.037 -17.372,11.23 -2.63,2.597 -4.973,5.571 -7.038,8.922 -2.063,3.353 -7.357,9.279 -9.226,24.646 -1.47,12.08 -13.463,15.035 -13.463,15.403 0,0.376 12.045,2.588 13.528,15.33 1.804,15.533 7.95,23.058 9.805,25.949 2.596,4.042 5.528,7.433 8.802,10.172 5.611,4.7 11.324,8.153 17.325,9.707 14.264,3.695 23.721,3.563 37.853,0 6.007,-1.516 11.712,-5.007 17.327,-9.707 3.269,-2.739 6.204,-6.13 8.798,-10.172 1.857,-2.891 8.001,-10.416 9.807,-25.949 C 1.416,17.991 13.461,15.779 13.461,15.403 13.461,15.035 1.47,12.08 0,0 M 13.195,42.26 C 9.542,50.531 4.433,57.742 -2.13,63.895 c -6.56,6.151 -14.044,10.908 -22.449,14.276 -8.405,3.367 -17.176,5.05 -26.326,5.05 h -8.037 c -9.15,0 -17.923,-1.683 -26.328,-5.05 -8.405,-3.368 -15.889,-8.125 -22.449,-14.276 -6.564,-6.153 -11.673,-13.364 -15.323,-21.635 -3.655,-8.271 -5.477,-17.105 -5.477,-26.508 0,-12.249 3.073,-23.566 9.219,-33.955 6.146,-10.389 14.566,-18.645 25.253,-24.769 10.693,-6.121 22.452,-9.184 35.283,-9.184 0.676,0 1.347,0.013 2.023,0.031 0.564,-0.015 1.133,-0.022 1.702,-0.026 v -0.002 c 0.038,0 0.078,10e-4 0.113,10e-4 0.04,0 0.078,-10e-4 0.116,-10e-4 v 0.002 c 0.571,0.004 1.14,0.011 1.704,0.026 0.671,-0.018 1.347,-0.031 2.023,-0.031 12.829,0 24.59,3.063 35.281,9.184 10.689,6.124 19.105,14.38 25.255,24.769 6.146,10.389 9.219,21.706 9.219,33.955 0,9.403 -1.824,18.237 -5.477,26.508" /></g><g
             transform="translate(226.4592,314.2678)"
             id="g92"
             style="fill:#ffffff"><path
               inkscape:connector-curvature="0"
               id="path94"
               style="fill:#ffffff;fill-opacity:1;fill-rule:nonzero;stroke:none"
               d="M 0,0 -6.831,4.074 V -82.438 L 0,-85.749 Z" /></g><g
             transform="translate(245.0932,308.9256)"
             id="g96"
             style="fill:#ffffff"><path
               inkscape:connector-curvature="0"
               id="path98"
               style="fill:#ffffff;fill-opacity:1;fill-rule:nonzero;stroke:none"
               d="m 0,0 h -19.437 v -1.707 h 16.362 c 8.621,0 14.428,-5.465 14.428,-14.6 0,-8.795 -5.722,-15.199 -13.746,-15.541 l -8.197,-0.086 v -1.708 h 8.964 c 12.979,0 21.69,7.087 21.69,17.078 C 20.064,-6.32 11.692,0 0,0" /></g><g
             transform="translate(201.3602,236.5921)"
             id="g100"
             style="fill:#ffffff"><path
               inkscape:connector-curvature="0"
               id="path102"
               style="fill:#ffffff;fill-opacity:1;fill-rule:nonzero;stroke:none"
               d="M 0,0 H 21.145 V 1.709 H 3.073 c -8.626,0 -14.431,5.462 -14.431,14.599 0,8.796 5.72,15.199 13.749,15.54 l 8.195,0.084 v 1.709 H 1.621 c -12.979,0 -21.687,-7.088 -21.687,-17.076 C -20.066,6.319 -11.699,0 0,0" /></g></g></g></g></g></svg>